<svg xmlns="http://www.w3.org/2000/svg" viewBox="0 0 348.40 590.50" role="img" aria-label="PolvorApp"><title>PolvorApp</title><path d="M38.32 456.46C21.24 273.30 136.02 304.29 194.91 162.64C195.79 241.86 117.98 302.58 93.76 343.68C67.55 388.14 67.70 488.34 107.34 534.38C89.17 448.49 183.18 398.31 232.26 342.73C344.75 215.33 290.45 108.09 186.77 0.02C194.57 89.97 79.90 187.51 28.60 250.91C-28.69 321.74 13.59 415.67 38.32 456.46Z" fill="#16131f"/><path d="M322.25 220.24C305.78 434.45 75.65 415.45 148.99 590.48C177.37 525.06 246.42 488.64 292.28 435.66C350.43 368.49 368.47 302.16 322.25 220.24Z" fill="#16131f"/></svg>
