<svg xmlns="http://www.w3.org/2000/svg" viewBox="0 0 512.00 512.00" role="img" aria-label="PolvorApp"><title>PolvorApp</title><rect width="512" height="512" rx="115.20" fill="#b8430b"/><path d="M177.03 340.34C167.55 238.70 231.24 255.90 263.92 177.29C264.41 221.25 221.23 254.95 207.79 277.75C193.25 302.43 193.33 358.03 215.33 383.58C205.25 335.91 257.42 308.07 284.65 277.23C347.07 206.53 316.94 147.02 259.41 87.05C263.74 136.96 200.10 191.09 171.64 226.28C139.84 265.58 163.30 317.70 177.03 340.34Z" fill="#ffffff"/><path d="M334.59 209.25C325.45 328.12 197.74 317.58 238.44 414.71C254.19 378.41 292.51 358.19 317.96 328.79C350.22 291.52 360.23 254.71 334.59 209.25Z" fill="#ffffff"/></svg>
